<?xml version="1.0" encoding="UTF-8"?>
<svg xmlns="http://www.w3.org/2000/svg" xmlns:xlink="http://www.w3.org/1999/xlink"
     width="348" height="520" viewBox="0 0 348 520">
<defs>
</defs>
<rect x="0" y="0" width="348" height="520" fill="#2b2b2b" />
<path d="M80.0,400.0 L129.0,400.0 Q139.0,400.0,145.0,392.0 L163.0,368.0 Q169.0,360.0,179.0,360.0 L228.0,360.0" stroke="#888888" stroke-width="3.0" fill="none" stroke-linecap="round" stroke-linejoin="round" />
<path d="M80.0,280.0 L85.0,280.0 Q95.0,280.0,101.0,288.0 L119.0,312.0 Q125.0,320.0,135.0,320.0 L140.0,320.0" stroke="#888888" stroke-width="3.0" fill="none" stroke-linecap="round" stroke-linejoin="round" />
<path d="M140.0,240.0 L159.0,240.0 Q169.0,240.0,171.42535625036334,249.70142500145332 L196.57464374963666,350.29857499854666 Q199.0,360.0,209.0,360.0 L228.0,360.0" stroke="#888888" stroke-width="3.0" fill="none" stroke-linecap="round" stroke-linejoin="round" />
<path d="M80.0,200.0 L85.0,200.0 Q95.0,200.0,101.0,208.0 L119.0,232.0 Q125.0,240.0,135.0,240.0 L140.0,240.0" stroke="#888888" stroke-width="3.0" fill="none" stroke-linecap="round" stroke-linejoin="round" />
<rect x="75.0" y="115.0" width="10.0" height="10.0" rx="5.0" ry="5.0" fill="#ffffff" stroke="#333333" stroke-width="1.5" />
<rect x="75.0" y="155.0" width="10.0" height="10.0" rx="5.0" ry="5.0" fill="#ffffff" stroke="#333333" stroke-width="1.5" />
<rect x="75.0" y="195.0" width="10.0" height="10.0" rx="5.0" ry="5.0" fill="#ffffff" stroke="#333333" stroke-width="1.5" />
<rect x="135.0" y="235.0" width="10.0" height="10.0" rx="5.0" ry="5.0" fill="#ffffff" stroke="#333333" stroke-width="1.5" />
<rect x="75.0" y="275.0" width="10.0" height="10.0" rx="5.0" ry="5.0" fill="#ffffff" stroke="#333333" stroke-width="1.5" />
<rect x="135.0" y="315.0" width="10.0" height="10.0" rx="5.0" ry="5.0" fill="#ffffff" stroke="#333333" stroke-width="1.5" />
<rect x="223.0" y="355.0" width="10.0" height="10.0" rx="5.0" ry="5.0" fill="#ffffff" stroke="#333333" stroke-width="1.5" />
<rect x="75.0" y="395.0" width="10.0" height="10.0" rx="5.0" ry="5.0" fill="#ffffff" stroke="#333333" stroke-width="1.5" />
<text x="80.0" y="136.0" font-size="10.0" fill="#e0e0e0" font-family="'Helvetica Neue', Helvetica, Arial, sans-serif" text-anchor="middle" dominant-baseline="hanging">"WES FASTQs\n(tumor + normal)"</text>
<text x="80.0" y="176.0" font-size="10.0" fill="#e0e0e0" font-family="'Helvetica Neue', Helvetica, Arial, sans-serif" text-anchor="middle" dominant-baseline="hanging">"RNA-seq FASTQs\n(tumor)"</text>
<text x="80.0" y="216.0" font-size="10.0" fill="#e0e0e0" font-family="'Helvetica Neue', Helvetica, Arial, sans-serif" text-anchor="middle" dominant-baseline="hanging">rnaseq</text>
<text x="80.0" y="296.0" font-size="10.0" fill="#e0e0e0" font-family="'Helvetica Neue', Helvetica, Arial, sans-serif" text-anchor="middle" dominant-baseline="hanging">hlatyping</text>
<text x="80.0" y="416.0" font-size="10.0" fill="#e0e0e0" font-family="'Helvetica Neue', Helvetica, Arial, sans-serif" text-anchor="middle" dominant-baseline="hanging">purecn</text>
<text x="140.0" y="224.0" font-size="10.0" fill="#e0e0e0" font-family="'Helvetica Neue', Helvetica, Arial, sans-serif" text-anchor="middle" dominant-baseline="auto">vcfannot</text>
<text x="140.0" y="304.0" font-size="10.0" fill="#e0e0e0" font-family="'Helvetica Neue', Helvetica, Arial, sans-serif" text-anchor="middle" dominant-baseline="auto">epipred</text>
<text x="228.0" y="376.0" font-size="10.0" fill="#e0e0e0" font-family="'Helvetica Neue', Helvetica, Arial, sans-serif" text-anchor="middle" dominant-baseline="hanging">postproc</text>
<text x="318.0" y="512" font-size="8" fill="rgba(150, 150, 150, 0.6)" font-family="'Helvetica Neue', Helvetica, Arial, sans-serif" text-anchor="end">created with nf-metro v0.3.0</text>
</svg>