<?xml version="1.0" encoding="UTF-8"?>
<svg xmlns="http://www.w3.org/2000/svg" xmlns:xlink="http://www.w3.org/1999/xlink"
     width="1467" height="505" viewBox="0 0 1467 505">
<defs>
</defs>
<rect x="0" y="0" width="1467" height="505" fill="#2b2b2b" />
<text x="60.0" y="30" font-size="18.0" fill="#ffffff" font-family="'Helvetica Neue', Helvetica, Arial, sans-serif" font-weight="bold">Neoantigen Prediction Pipeline</text>
<rect x="60.0" y="85.0" width="205.0" height="110.0" rx="8" ry="8" fill="rgba(255, 255, 255, 0.06)" stroke="rgba(255, 255, 255, 0.2)" stroke-width="1.0" />
<circle cx="69.0" cy="72.0" r="9" fill="#333333" />
<text x="69.0" y="72.0" font-size="9" fill="#ffffff" font-family="'Helvetica Neue', Helvetica, Arial, sans-serif" font-weight="bold" text-anchor="middle" dominant-baseline="central">1</text>
<text x="83.0" y="72.0" font-size="10.0" fill="#aaaaaa" font-family="'Helvetica Neue', Helvetica, Arial, sans-serif" dominant-baseline="central">Inputs</text>
<rect x="315.0" y="85.0" width="268.0" height="150.0" rx="8" ry="8" fill="rgba(255, 255, 255, 0.06)" stroke="rgba(255, 255, 255, 0.2)" stroke-width="1.0" />
<circle cx="324.0" cy="72.0" r="9" fill="#333333" />
<text x="324.0" y="72.0" font-size="9" fill="#ffffff" font-family="'Helvetica Neue', Helvetica, Arial, sans-serif" font-weight="bold" text-anchor="middle" dominant-baseline="central">2</text>
<text x="338.0" y="72.0" font-size="10.0" fill="#aaaaaa" font-family="'Helvetica Neue', Helvetica, Arial, sans-serif" dominant-baseline="central">nf-core Pipelines</text>
<rect x="633.0" y="85.0" width="285.5" height="110.0" rx="8" ry="8" fill="rgba(255, 255, 255, 0.06)" stroke="rgba(255, 255, 255, 0.2)" stroke-width="1.0" />
<circle cx="642.0" cy="72.0" r="9" fill="#333333" />
<text x="642.0" y="72.0" font-size="9" fill="#ffffff" font-family="'Helvetica Neue', Helvetica, Arial, sans-serif" font-weight="bold" text-anchor="middle" dominant-baseline="central">3</text>
<text x="656.0" y="72.0" font-size="10.0" fill="#aaaaaa" font-family="'Helvetica Neue', Helvetica, Arial, sans-serif" dominant-baseline="central">Annotation</text>
<rect x="938.5" y="85.0" width="409.0" height="70.0" rx="8" ry="8" fill="rgba(255, 255, 255, 0.06)" stroke="rgba(255, 255, 255, 0.2)" stroke-width="1.0" />
<circle cx="947.5" cy="72.0" r="9" fill="#333333" />
<text x="947.5" y="72.0" font-size="9" fill="#ffffff" font-family="'Helvetica Neue', Helvetica, Arial, sans-serif" font-weight="bold" text-anchor="middle" dominant-baseline="central">4</text>
<text x="961.5" y="72.0" font-size="10.0" fill="#aaaaaa" font-family="'Helvetica Neue', Helvetica, Arial, sans-serif" dominant-baseline="central">Prediction &amp; Output</text>
<path d="M365.0,203.0 L449.0,203.0 Q459.0,203.0,463.7222141251542,194.18520029971216 L484.2777858748458,155.81479970028784 Q489.0,147.0,499.0,147.0 L583.0,147.0" stroke="#3B82F6" stroke-width="3.0" fill="none" stroke-linecap="round" stroke-linejoin="round" />
<path d="M683.0,169.0 L775.75,169.0 Q785.75,169.0,792.8210678118654,161.92893218813452 L808.6789321881346,146.07106781186548 Q815.75,139.0,825.75,139.0 L918.5,139.0" stroke="#10B981" stroke-width="3.0" fill="none" stroke-linecap="round" stroke-linejoin="round" />
<path d="M365.0,166.0 L449.0,166.0 Q459.0,166.0,467.8235294117647,161.2941176470588 L480.1764705882353,154.7058823529412 Q489.0,150.0,499.0,150.0 L583.0,150.0" stroke="#8B5CF6" stroke-width="3.0" fill="none" stroke-linecap="round" stroke-linejoin="round" />
<path d="M110.0,163.0 L162.5,163.0 Q172.5,163.0,179.9740931868366,156.3563616117008 L195.0259068131634,142.97697172163254 Q202.5,136.33333333333334,212.5,136.33333333333334 L265.0,136.33333333333334" stroke="#3B82F6" stroke-width="3.0" fill="none" stroke-linecap="round" stroke-linejoin="round" />
<path d="M938.5,153.0 L943.5,153.0 Q953.5,153.0,961.3086880944303,146.75304952445575 L975.6913119055697,135.24695047554425 Q983.5,129.0,993.5,129.0 L1237.5,129.0" stroke="#10B981" stroke-width="3.0" fill="none" stroke-linecap="round" stroke-linejoin="round" />
<path d="M938.5,153.0 L943.5,153.0 Q953.5,153.0,961.3086880944303,146.75304952445575 L975.6913119055697,135.24695047554425 Q983.5,129.0,993.5,129.0 L1237.5,129.0" stroke="#10B981" stroke-width="3.0" fill="none" stroke-linecap="round" stroke-linejoin="round" />
<path d="M938.5,150.0 L943.5,150.0 Q953.5,150.0,959.9018439966447,142.31778720402625 L967.0981560033553,133.68221279597375 Q973.5,126.0,983.5,126.0 L988.5,126.0" stroke="#8B5CF6" stroke-width="3.0" fill="none" stroke-linecap="round" stroke-linejoin="round" />
<path d="M583.0,150.0 L593.0,150.0" stroke="#8B5CF6" stroke-width="3.0" stroke-linecap="round" />
<path d="M593.0,150.0 L938.5,150.0" stroke="#8B5CF6" stroke-width="3.0" stroke-linecap="round" />
<path d="M633.0,147.0 L638.0,147.0 Q648.0,147.0,654.4018439966447,139.31778720402625 L661.5981560033553,130.68221279597375 Q668.0,123.0,678.0,123.0 L683.0,123.0" stroke="#3B82F6" stroke-width="3.0" fill="none" stroke-linecap="round" stroke-linejoin="round" />
<path d="M583.0,147.0 L593.0,147.0" stroke="#3B82F6" stroke-width="3.0" stroke-linecap="round" />
<path d="M593.0,147.0 L633.0,147.0" stroke="#3B82F6" stroke-width="3.0" stroke-linecap="round" />
<path d="M633.0,144.0 L638.0,144.0 Q648.0,144.0,654.4018439966447,136.31778720402625 L661.5981560033553,127.68221279597375 Q668.0,120.0,678.0,120.0 L683.0,120.0" stroke="#888888" stroke-width="3.0" fill="none" stroke-linecap="round" stroke-linejoin="round" />
<path d="M633.0,144.0 L638.0,144.0 Q648.0,144.0,654.4018439966447,136.31778720402625 L661.5981560033553,127.68221279597375 Q668.0,120.0,678.0,120.0 L683.0,120.0" stroke="#888888" stroke-width="3.0" fill="none" stroke-linecap="round" stroke-linejoin="round" />
<path d="M633.0,144.0 L638.0,144.0 Q648.0,144.0,655.8086880944303,150.24695047554425 L660.1913119055697,153.75304952445575 Q668.0,160.0,678.0,160.0 L683.0,160.0" stroke="#F59E0B" stroke-width="3.0" fill="none" stroke-linecap="round" stroke-linejoin="round" />
<path d="M938.5,144.0 L943.5,144.0 Q953.5,144.0,959.9018439966447,136.31778720402625 L967.0981560033553,127.68221279597375 Q973.5,120.0,983.5,120.0 L988.5,120.0" stroke="#888888" stroke-width="3.0" fill="none" stroke-linecap="round" stroke-linejoin="round" />
<path d="M938.5,144.0 L943.5,144.0 Q953.5,144.0,959.9018439966447,136.31778720402625 L967.0981560033553,127.68221279597375 Q973.5,120.0,983.5,120.0 L988.5,120.0" stroke="#888888" stroke-width="3.0" fill="none" stroke-linecap="round" stroke-linejoin="round" />
<path d="M583.0,144.0 L593.0,144.0" stroke="#888888" stroke-width="3.0" stroke-linecap="round" />
<path d="M583.0,144.0 L593.0,144.0" stroke="#888888" stroke-width="3.0" stroke-linecap="round" />
<path d="M583.0,144.0 L593.0,144.0" stroke="#F59E0B" stroke-width="3.0" stroke-linecap="round" />
<path d="M593.0,144.0 L633.0,144.0" stroke="#888888" stroke-width="3.0" stroke-linecap="round" />
<path d="M593.0,144.0 L633.0,144.0" stroke="#888888" stroke-width="3.0" stroke-linecap="round" />
<path d="M593.0,144.0 L633.0,144.0" stroke="#F59E0B" stroke-width="3.0" stroke-linecap="round" />
<path d="M315.0,139.33333333333334 L320.0,139.33333333333334 Q330.0,139.33333333333334,336.0,147.33333333333334 L344.0,158.0 Q350.0,166.0,360.0,166.0 L365.0,166.0" stroke="#8B5CF6" stroke-width="3.0" fill="none" stroke-linecap="round" stroke-linejoin="round" />
<path d="M265.0,139.33333333333334 L315.0,139.33333333333334" stroke="#8B5CF6" stroke-width="3.0" stroke-linecap="round" />
<path d="M918.5,139.0 L918.5,139.0 Q924.0,139.0,924.0,144.5 L924.0,146.0 Q924.0,153.0,931.0,153.0 L938.5,153.0" stroke="#10B981" stroke-width="3.0" fill="none" stroke-linecap="round" stroke-linejoin="round" />
<path d="M918.5,139.0 L918.5,139.0 Q924.0,139.0,924.0,144.5 L924.0,146.0 Q924.0,153.0,931.0,153.0 L938.5,153.0" stroke="#10B981" stroke-width="3.0" fill="none" stroke-linecap="round" stroke-linejoin="round" />
<path d="M315.0,136.33333333333334 L320.0,136.33333333333334 Q330.0,136.33333333333334,332.87347885566345,145.91159618554485 L347.12652114433655,193.4217371477885 Q350.0,203.0,360.0,203.0 L365.0,203.0" stroke="#3B82F6" stroke-width="3.0" fill="none" stroke-linecap="round" stroke-linejoin="round" />
<path d="M265.0,136.33333333333334 L315.0,136.33333333333334" stroke="#3B82F6" stroke-width="3.0" stroke-linecap="round" />
<path d="M315.0,133.33333333333334 L320.0,133.33333333333334 Q330.0,133.33333333333334,338.3205029433784,127.78633137108105 L341.6794970566216,125.5470019622523 Q350.0,120.0,360.0,120.0 L365.0,120.0" stroke="#F59E0B" stroke-width="3.0" fill="none" stroke-linecap="round" stroke-linejoin="round" />
<path d="M265.0,133.33333333333334 L315.0,133.33333333333334" stroke="#F59E0B" stroke-width="3.0" stroke-linecap="round" />
<path d="M918.5,130.0 L926.0,130.0 Q933.0,130.0,933.0,137.0 L933.0,138.5 Q933.0,144.0,938.5,144.0 L938.5,144.0" stroke="#888888" stroke-width="3.0" fill="none" stroke-linecap="round" stroke-linejoin="round" />
<path d="M918.5,130.0 L923.0,130.0 Q930.0,130.0,930.0,137.0 L930.0,137.0 Q930.0,144.0,937.0,144.0 L938.5,144.0" stroke="#888888" stroke-width="3.0" fill="none" stroke-linecap="round" stroke-linejoin="round" />
<path d="M988.5,129.0 L1237.5,129.0" stroke="#10B981" stroke-width="3.0" stroke-linecap="round" />
<path d="M1237.5,129.0 L1297.5,129.0" stroke="#10B981" stroke-width="3.0" stroke-linecap="round" />
<path d="M683.0,129.0 L775.75,129.0 Q785.75,129.0,795.2368329805051,132.16227766016837 L806.2631670194949,135.83772233983163 Q815.75,139.0,825.75,139.0 L918.5,139.0" stroke="#10B981" stroke-width="3.0" fill="none" stroke-linecap="round" stroke-linejoin="round" />
<path d="M110.0,126.0 L162.5,126.0 Q172.5,126.0,181.63811548620257,130.0613846605345 L193.36188451379743,135.27194867279886 Q202.5,139.33333333333334,212.5,139.33333333333334 L265.0,139.33333333333334" stroke="#8B5CF6" stroke-width="3.0" fill="none" stroke-linecap="round" stroke-linejoin="round" />
<path d="M110.0,120.0 L162.5,120.0 Q172.5,120.0,181.63811548620257,124.06138466053447 L193.36188451379743,129.27194867279886 Q202.5,133.33333333333334,212.5,133.33333333333334 L265.0,133.33333333333334" stroke="#F59E0B" stroke-width="3.0" fill="none" stroke-linecap="round" stroke-linejoin="round" />
<path d="M365.0,120.0 L449.0,120.0 Q459.0,120.0,466.8086880944303,126.24695047554424 L481.1913119055697,137.75304952445575 Q489.0,144.0,499.0,144.0 L583.0,144.0" stroke="#888888" stroke-width="3.0" fill="none" stroke-linecap="round" stroke-linejoin="round" />
<path d="M365.0,120.0 L449.0,120.0 Q459.0,120.0,466.8086880944303,126.24695047554424 L481.1913119055697,137.75304952445575 Q489.0,144.0,499.0,144.0 L583.0,144.0" stroke="#888888" stroke-width="3.0" fill="none" stroke-linecap="round" stroke-linejoin="round" />
<path d="M365.0,120.0 L449.0,120.0 Q459.0,120.0,466.8086880944303,126.24695047554424 L481.1913119055697,137.75304952445575 Q489.0,144.0,499.0,144.0 L583.0,144.0" stroke="#F59E0B" stroke-width="3.0" fill="none" stroke-linecap="round" stroke-linejoin="round" />
<path d="M683.0,120.0 L775.75,120.0 Q785.75,120.0,795.2368329805051,123.16227766016839 L806.2631670194949,126.83772233983161 Q815.75,130.0,825.75,130.0 L918.5,130.0" stroke="#888888" stroke-width="3.0" fill="none" stroke-linecap="round" stroke-linejoin="round" />
<path d="M683.0,120.0 L775.75,120.0 Q785.75,120.0,795.2368329805051,123.16227766016839 L806.2631670194949,126.83772233983161 Q815.75,130.0,825.75,130.0 L918.5,130.0" stroke="#888888" stroke-width="3.0" fill="none" stroke-linecap="round" stroke-linejoin="round" />
<rect x="105.0" y="115.0" width="10.0" height="16.0" rx="5.0" ry="5.0" fill="#ffffff" stroke="#333333" stroke-width="1.5" />
<rect x="105.0" y="158.0" width="10.0" height="10.0" rx="5.0" ry="5.0" fill="#ffffff" stroke="#333333" stroke-width="1.5" />
<rect x="360.0" y="115.0" width="10.0" height="10.0" rx="5.0" ry="5.0" fill="#ffffff" stroke="#333333" stroke-width="1.5" />
<rect x="360.0" y="161.0" width="10.0" height="10.0" rx="5.0" ry="5.0" fill="#ffffff" stroke="#333333" stroke-width="1.5" />
<rect x="360.0" y="198.0" width="10.0" height="10.0" rx="5.0" ry="5.0" fill="#ffffff" stroke="#333333" stroke-width="1.5" />
<rect x="678.0" y="115.0" width="10.0" height="19.0" rx="5.0" ry="5.0" fill="#ffffff" stroke="#333333" stroke-width="1.5" />
<rect x="678.0" y="155.0" width="10.0" height="19.0" rx="5.0" ry="5.0" fill="#ffffff" stroke="#333333" stroke-width="1.5" />
<rect x="983.5" y="115.0" width="10.0" height="19.0" rx="5.0" ry="5.0" fill="#ffffff" stroke="#333333" stroke-width="1.5" />
<rect x="1232.5" y="124.0" width="10.0" height="10.0" rx="5.0" ry="5.0" fill="#ffffff" stroke="#333333" stroke-width="1.5" />
<rect x="1292.5" y="124.0" width="10.0" height="10.0" rx="5.0" ry="5.0" fill="#ffffff" stroke="#333333" stroke-width="1.5" />
<text x="1145.5" y="137.0" font-size="10.0" fill="#e0e0e0" font-family="'Helvetica Neue', Helvetica, Arial, sans-serif" text-anchor="middle" dominant-baseline="hanging">"5 · nf-core/epitopeprediction\nMHC-I binding predictions"</text>
<text x="169.0" y="142.0" font-size="10.0" fill="#e0e0e0" font-family="'Helvetica Neue', Helvetica, Arial, sans-serif" text-anchor="middle" dominant-baseline="hanging">"WES FASTQs\n(tumor + normal)"</text>
<text x="469.5" y="104.0" font-size="10.0" fill="#e0e0e0" font-family="'Helvetica Neue', Helvetica, Arial, sans-serif" text-anchor="middle" dominant-baseline="auto">"1 · nf-core/sarek\nMutect2 · CNVkit · VEP"</text>
<text x="822.5" y="145.0" font-size="10.0" fill="#e0e0e0" font-family="'Helvetica Neue', Helvetica, Arial, sans-serif" text-anchor="middle" dominant-baseline="hanging">"4 · vcf-expression-annotator\nannotate VCF with TPM"</text>
<text x="151.5" y="177.0" font-size="10.0" fill="#e0e0e0" font-family="'Helvetica Neue', Helvetica, Arial, sans-serif" text-anchor="middle" dominant-baseline="hanging">"RNA-seq FASTQs\n(tumor)"</text>
<text x="487.0" y="130.8" font-size="10.0" fill="#e0e0e0" font-family="'Helvetica Neue', Helvetica, Arial, sans-serif" text-anchor="middle" dominant-baseline="auto">"2 · nf-core/hlatyping\nOptiType — normal reads"</text>
<text x="780.5" y="177.0" font-size="10.0" fill="#e0e0e0" font-family="'Helvetica Neue', Helvetica, Arial, sans-serif" text-anchor="middle" dominant-baseline="hanging">"6 · nextflow-purecn\ntumor purity &amp; CCF"</text>
<text x="434.5" y="217.0" font-size="10.0" fill="#e0e0e0" font-family="'Helvetica Neue', Helvetica, Arial, sans-serif" text-anchor="middle" dominant-baseline="hanging">"3 · nf-core/rnaseq\nSTAR-Salmon"</text>
<text x="1154.5" y="113.0" font-size="10.0" fill="#e0e0e0" font-family="'Helvetica Neue', Helvetica, Arial, sans-serif" text-anchor="middle" dominant-baseline="auto">"7+8 · post-processing\nmerge · join CCF · prioritise"</text>
<text x="1217.5" y="103.0" font-size="10.0" fill="#e0e0e0" font-family="'Helvetica Neue', Helvetica, Arial, sans-serif" text-anchor="middle" dominant-baseline="auto">"Prioritised Neoantigens\nS3 output"</text>
<rect x="60.0" y="265.0" width="144.48" height="120.0" rx="6" ry="6" fill="rgba(0, 0, 0, 0.3)" />
<path d="M72.0,289.0 L96.0,289.0" stroke="#F59E0B" stroke-width="3.0" stroke-linecap="round" />
<text x="108.0" y="289.0" font-size="11.0" fill="#e0e0e0" font-family="'Helvetica Neue', Helvetica, Arial, sans-serif" dominant-baseline="central">Variant Analysis</text>
<path d="M72.0,313.0 L96.0,313.0" stroke="#3B82F6" stroke-width="3.0" stroke-linecap="round" />
<text x="108.0" y="313.0" font-size="11.0" fill="#e0e0e0" font-family="'Helvetica Neue', Helvetica, Arial, sans-serif" dominant-baseline="central">Expression</text>
<path d="M72.0,337.0 L96.0,337.0" stroke="#8B5CF6" stroke-width="3.0" stroke-linecap="round" />
<text x="108.0" y="337.0" font-size="11.0" fill="#e0e0e0" font-family="'Helvetica Neue', Helvetica, Arial, sans-serif" dominant-baseline="central">HLA Typing</text>
<path d="M72.0,361.0 L96.0,361.0" stroke="#10B981" stroke-width="3.0" stroke-linecap="round" />
<text x="108.0" y="361.0" font-size="11.0" fill="#e0e0e0" font-family="'Helvetica Neue', Helvetica, Arial, sans-serif" dominant-baseline="central">Neoantigen</text>
<text x="1437.0" y="497" font-size="8" fill="rgba(150, 150, 150, 0.6)" font-family="'Helvetica Neue', Helvetica, Arial, sans-serif" text-anchor="end">created with nf-metro v0.3.0</text>
</svg>